<svg width="56" height="57" viewBox="0 0 56 57" fill="none" xmlns="http://www.w3.org/2000/svg">
<rect x="0.716352" y="1.04838" width="54.4856" height="54.4856" rx="27.2428" stroke="#344054" stroke-opacity="0.08" stroke-width="1.15927"/>
<path d="M39.5525 33.1483C39.5525 37.368 37.0369 39.8836 32.8172 39.8836H31.4377C30.8001 39.8836 30.2784 39.3619 30.2784 38.7243V32.0354C30.2784 31.7224 30.5334 31.4557 30.8464 31.4557L32.8867 31.421C33.049 31.4094 33.1882 31.2934 33.2229 31.1311L33.6287 28.9169C33.6635 28.7083 33.5012 28.5112 33.2809 28.5112L30.8116 28.546C30.4871 28.546 30.232 28.2909 30.2204 27.9779L30.1741 25.1377C30.1741 24.9522 30.3248 24.7899 30.5218 24.7899L33.3041 24.7436C33.5011 24.7436 33.6519 24.5929 33.6519 24.3958L33.6055 21.6135C33.6055 21.4164 33.4548 21.2658 33.2577 21.2658L30.1277 21.3121C28.2033 21.3469 26.6731 22.9235 26.7079 24.8479L26.7658 28.0359C26.7774 28.3605 26.5224 28.6155 26.1978 28.6271L24.8067 28.6503C24.6096 28.6503 24.4589 28.801 24.4589 28.9981L24.4937 31.2007C24.4937 31.3978 24.6444 31.5485 24.8414 31.5485L26.2326 31.5253C26.5572 31.5253 26.8122 31.7803 26.8238 32.0933L26.9281 38.7012C26.9397 39.3503 26.418 39.8836 25.7688 39.8836H23.1025C18.8828 39.8836 16.3672 37.368 16.3672 33.1366V23.4336C16.3672 19.2138 18.8828 16.6982 23.1025 16.6982H32.8172C37.0369 16.6982 39.5525 19.2138 39.5525 23.4336V33.1483Z" fill="#1A1C30"/>
</svg>
