<svg width="56" height="57" viewBox="0 0 56 57" fill="none" xmlns="http://www.w3.org/2000/svg">
<rect x="0.681196" y="1.04838" width="54.4856" height="54.4856" rx="27.2428" stroke="#344054" stroke-opacity="0.08" stroke-width="1.15927"/>
<path d="M29.1171 16.6997C29.9631 16.6964 30.809 16.7049 31.6547 16.7252L31.8796 16.7333C32.1393 16.7426 32.3955 16.7542 32.705 16.7681C33.9385 16.826 34.7801 17.0208 35.5186 17.3071C36.2837 17.6016 36.9282 18.0004 37.5728 18.6449C38.1621 19.2241 38.6183 19.9247 38.9094 20.698C39.1958 21.4364 39.3905 22.2792 39.4485 23.5127C39.4624 23.821 39.474 24.0784 39.4833 24.3381L39.4902 24.563C39.5108 25.4083 39.5197 26.2539 39.5169 27.0995L39.518 27.9643V29.4829C39.5209 30.3289 39.512 31.1748 39.4914 32.0205L39.4844 32.2454C39.4752 32.5051 39.4636 32.7613 39.4497 33.0708C39.3917 34.3043 39.1946 35.1459 38.9094 35.8844C38.6192 36.6585 38.163 37.3597 37.5728 37.9386C36.9931 38.5279 36.2922 38.984 35.5186 39.2752C34.7801 39.5616 33.9385 39.7563 32.705 39.8143C32.3955 39.8282 32.1393 39.8398 31.8796 39.8491L31.6547 39.856C30.809 39.8766 29.9631 39.8855 29.1171 39.8827L28.2523 39.8839H26.7348C25.8888 39.8867 25.0429 39.8778 24.1972 39.8572L23.9723 39.8502C23.6971 39.8403 23.4219 39.8287 23.1469 39.8155C21.9134 39.7575 21.0718 39.5604 20.3322 39.2752C19.5586 38.9847 18.8579 38.5285 18.2791 37.9386C17.6891 37.3593 17.2326 36.6583 16.9413 35.8844C16.655 35.1459 16.4602 34.3043 16.4023 33.0708C16.3893 32.7958 16.3778 32.5206 16.3675 32.2454L16.3617 32.0205C16.3403 31.1748 16.3306 30.3289 16.3327 29.4829V27.0995C16.3295 26.2539 16.338 25.4083 16.3582 24.563L16.3663 24.3381C16.3756 24.0784 16.3872 23.821 16.4011 23.5127C16.4591 22.2781 16.6538 21.4376 16.9402 20.698C17.2316 19.9243 17.689 19.2239 18.2803 18.6461C18.8586 18.0557 19.5589 17.5988 20.3322 17.3071C21.0718 17.0208 21.9123 16.826 23.1469 16.7681L23.9723 16.7333L24.1972 16.7275C25.0425 16.7061 25.8881 16.6965 26.7336 16.6985L29.1171 16.6997ZM27.9254 22.496C27.1574 22.4851 26.3949 22.627 25.6822 22.9134C24.9695 23.1998 24.3208 23.625 23.7739 24.1643C23.2269 24.7035 22.7926 25.3461 22.4962 26.0547C22.1997 26.7633 22.0471 27.5237 22.0471 28.2918C22.0471 29.0598 22.1997 29.8203 22.4962 30.5288C22.7926 31.2374 23.2269 31.88 23.7739 32.4193C24.3208 32.9585 24.9695 33.3837 25.6822 33.6701C26.3949 33.9565 27.1574 34.0984 27.9254 34.0875C29.4627 34.0875 30.937 33.4768 32.024 32.3898C33.111 31.3028 33.7217 29.8285 33.7217 28.2912C33.7217 26.7539 33.111 25.2796 32.024 24.1926C30.937 23.1055 29.4627 22.496 27.9254 22.496ZM27.9254 24.8145C28.3874 24.806 28.8464 24.8897 29.2757 25.0605C29.705 25.2314 30.0959 25.4862 30.4257 25.8098C30.7554 26.1335 31.0173 26.5196 31.1962 26.9457C31.375 27.3717 31.4672 27.8291 31.4672 28.2912C31.4673 28.7532 31.3753 29.2107 31.1966 29.6368C31.0179 30.0629 30.7561 30.4491 30.4265 30.7729C30.0968 31.0967 29.706 31.3515 29.2768 31.5225C28.8475 31.6936 28.3885 31.7773 27.9265 31.769C27.0042 31.769 26.1196 31.4026 25.4674 30.7504C24.8151 30.0981 24.4487 29.2136 24.4487 28.2912C24.4487 27.3688 24.8151 26.4842 25.4674 25.832C26.1196 25.1798 27.0042 24.8134 27.9265 24.8134L27.9254 24.8145ZM34.0115 20.7571C33.6375 20.7721 33.2838 20.9312 33.0245 21.2011C32.7652 21.471 32.6204 21.8307 32.6204 22.205C32.6204 22.5793 32.7652 22.9391 33.0245 23.209C33.2838 23.4789 33.6375 23.638 34.0115 23.653C34.3958 23.653 34.7644 23.5003 35.0362 23.2285C35.3079 22.9568 35.4606 22.5882 35.4606 22.2039C35.4606 21.8195 35.3079 21.451 35.0362 21.1792C34.7644 20.9075 34.3958 20.7548 34.0115 20.7548V20.7571Z" fill="#1A1C30"/>
</svg>
