<svg width="56" height="57" viewBox="0 0 56 57" fill="none" xmlns="http://www.w3.org/2000/svg">
<rect x="0.64604" y="1.04838" width="54.4856" height="54.4856" rx="27.2428" stroke="#344054" stroke-opacity="0.08" stroke-width="1.15927"/>
<path d="M36.0053 17.8574C36.6202 17.8574 37.21 18.1017 37.6448 18.5365C38.0796 18.9713 38.3238 19.561 38.3238 20.176V36.4057C38.3238 37.0206 38.0796 37.6103 37.6448 38.0452C37.21 38.48 36.6202 38.7242 36.0053 38.7242H19.7756C19.1607 38.7242 18.5709 38.48 18.1361 38.0452C17.7013 37.6103 17.457 37.0206 17.457 36.4057V20.176C17.457 19.561 17.7013 18.9713 18.1361 18.5365C18.5709 18.1017 19.1607 17.8574 19.7756 17.8574H36.0053ZM35.4257 35.8261V29.6819C35.4257 28.6796 35.0275 27.7184 34.3188 27.0096C33.61 26.3009 32.6488 25.9027 31.6465 25.9027C30.6611 25.9027 29.5134 26.5056 28.957 27.4098V26.123H25.7226V35.8261H28.957V30.1109C28.957 29.2182 29.6757 28.4879 30.5683 28.4879C30.9988 28.4879 31.4116 28.6589 31.716 28.9633C32.0203 29.2676 32.1913 29.6804 32.1913 30.1109V35.8261H35.4257ZM21.955 24.3029C22.4715 24.3029 22.9669 24.0978 23.3321 23.7325C23.6974 23.3673 23.9026 22.8719 23.9026 22.3554C23.9026 21.2773 23.0331 20.3962 21.955 20.3962C21.4354 20.3962 20.9371 20.6026 20.5697 20.97C20.2022 21.3375 19.9958 21.8358 19.9958 22.3554C19.9958 23.4335 20.8769 24.3029 21.955 24.3029ZM23.5664 35.8261V26.123H20.3552V35.8261H23.5664Z" fill="#1A1C30"/>
</svg>
