<svg width="56" height="57" viewBox="0 0 56 57" fill="none" xmlns="http://www.w3.org/2000/svg">
<rect x="0.61479" y="1.04838" width="54.4856" height="54.4856" rx="27.2428" stroke="#344054" stroke-opacity="0.08" stroke-width="1.15927"/>
<path d="M33.1908 21.1266C32.3984 20.2219 31.9617 19.0601 31.962 17.8574H28.3799V32.2323C28.3522 33.0102 28.0238 33.7471 27.4638 34.2876C26.9037 34.8282 26.1557 35.1304 25.3774 35.1305C23.7312 35.1305 22.3633 33.7858 22.3633 32.1164C22.3633 30.1225 24.2876 28.627 26.27 29.2414V25.5781C22.2705 25.0449 18.7695 28.1517 18.7695 32.1164C18.7695 35.9768 21.9691 38.7242 25.3658 38.7242C29.0059 38.7242 31.962 35.7681 31.962 32.1164V24.8246C33.4146 25.8678 35.1585 26.4275 36.9468 26.4244V22.8423C36.9468 22.8423 34.7674 22.9466 33.1908 21.1266Z" fill="#1A1C30"/>
</svg>
