<svg width="56" height="57" viewBox="0 0 56 57" fill="none" xmlns="http://www.w3.org/2000/svg">
<rect x="0.579634" y="1.04838" width="54.4856" height="54.4856" rx="27.2428" stroke="#344054" stroke-opacity="0.08" stroke-width="1.15927"/>
<path d="M33.6195 19.0166H22.0268C18.549 19.0166 16.2305 21.3351 16.2305 24.8129V31.7685C16.2305 35.2463 18.549 37.5649 22.0268 37.5649H33.6195C37.0973 37.5649 39.4158 35.2463 39.4158 31.7685V24.8129C39.4158 21.3351 37.0973 19.0166 33.6195 19.0166ZM30.0142 29.4848L27.1507 31.2005C25.9915 31.8961 25.0409 31.3628 25.0409 30.0065V26.5634C25.0409 25.2071 25.9915 24.6738 27.1507 25.3694L30.0142 27.0851C31.1155 27.7575 31.1155 28.824 30.0142 29.4848Z" fill="#1A1C30"/>
</svg>
